<svg width="1440" height="3894" viewBox="0 0 1440 3894" fill="none" xmlns="http://www.w3.org/2000/svg">
<g clip-path="url(#clip0_2_3)">
<rect width="1440" height="3894" fill="white"/>
<rect x="-18" y="3687" width="1461" height="207" fill="#D9D9D9"/>
<rect x="513" y="3729" width="414" height="31" fill="#979494"/>
<rect x="400" y="3789" width="640" height="30" fill="#979494"/>
<rect y="3680" width="1440" height="7" fill="#979494"/>
<rect x="-13" y="3416" width="1456" height="264" fill="#D9D9D9"/>
<rect x="1188.21" y="3487.65" width="189.07" height="61.4133" fill="#979494"/>
<path d="M1267.19 3518.54H1262.81L1262.78 3516.12H1266.46C1267.11 3516.12 1267.64 3516.04 1268.06 3515.88C1268.47 3515.71 1268.78 3515.46 1268.98 3515.14C1269.19 3514.81 1269.3 3514.41 1269.3 3513.94C1269.3 3513.41 1269.2 3512.98 1268.99 3512.65C1268.8 3512.33 1268.49 3512.09 1268.07 3511.94C1267.65 3511.79 1267.12 3511.72 1266.46 3511.72H1264.02V3526.03H1260.51V3508.96H1266.46C1267.45 3508.96 1268.34 3509.06 1269.12 3509.24C1269.91 3509.43 1270.58 3509.72 1271.13 3510.1C1271.67 3510.48 1272.09 3510.97 1272.38 3511.55C1272.67 3512.13 1272.81 3512.82 1272.81 3513.62C1272.81 3514.32 1272.65 3514.97 1272.33 3515.56C1272.02 3516.15 1271.52 3516.64 1270.84 3517.01C1270.17 3517.39 1269.29 3517.6 1268.21 3517.64L1267.19 3518.54ZM1267.04 3526.03H1261.84L1263.22 3523.28H1267.04C1267.65 3523.28 1268.16 3523.19 1268.55 3522.99C1268.94 3522.79 1269.23 3522.51 1269.41 3522.17C1269.6 3521.83 1269.7 3521.43 1269.7 3520.99C1269.7 3520.49 1269.61 3520.05 1269.44 3519.69C1269.27 3519.32 1269.01 3519.04 1268.64 3518.84C1268.27 3518.64 1267.79 3518.54 1267.19 3518.54H1263.8L1263.82 3516.12H1268.04L1268.85 3517.07C1269.89 3517.06 1270.73 3517.24 1271.36 3517.62C1272 3518 1272.47 3518.49 1272.75 3519.09C1273.05 3519.69 1273.2 3520.33 1273.2 3521.02C1273.2 3522.12 1272.96 3523.04 1272.48 3523.79C1272.01 3524.53 1271.31 3525.09 1270.39 3525.46C1269.47 3525.84 1268.36 3526.03 1267.04 3526.03ZM1283.14 3508.96V3526.03H1279.63V3508.96H1283.14ZM1288.39 3508.96V3511.72H1274.47V3508.96H1288.39ZM1304.28 3508.96V3526.03H1300.76L1293.91 3514.59V3526.03H1290.39V3508.96H1293.91L1300.77 3520.41V3508.96H1304.28Z" fill="black"/>
<rect x="853" y="3487.65" width="294.767" height="59.3662" fill="white"/>
<g filter="url(#filter0_d_2_3)">
<path d="M1107.83 3514.26L1118.9 3523.45C1119.64 3524.06 1120.7 3524.07 1121.44 3523.47L1132.82 3514.26" stroke="#979494" stroke-width="2"/>
</g>
<rect x="853" y="3497.88" width="181.609" height="40.9422" fill="#979494"/>
<rect x="400" y="3485.6" width="413" height="61.4133" fill="white"/>
<rect x="400" y="3495.84" width="189" height="40.9422" fill="#979494"/>
<rect x="60" y="3463" width="303.322" height="51.1777" fill="#979494"/>
<rect x="60" y="3524.41" width="189.071" height="51.1777" fill="#979494"/>
<rect x="-18" y="2874" width="1461" height="482" fill="#D9D9D9"/>
<rect x="853" y="3015" width="414.477" height="50" fill="#979494"/>
<rect x="853" y="3085" width="414.477" height="50" fill="#979494"/>
<rect x="177.663" y="3040" width="74.0646" height="60" fill="#979494"/>
<rect x="62" y="3040" width="74.0646" height="60" fill="#979494"/>
<path d="M527.044 2927.15H531.544C531.309 2929.3 530.692 2931.23 529.692 2932.94C528.692 2934.64 527.278 2935.99 525.45 2936.99C523.622 2937.98 521.341 2938.47 518.606 2938.47C516.606 2938.47 514.786 2938.09 513.145 2937.34C511.52 2936.59 510.122 2935.53 508.95 2934.16C507.778 2932.77 506.872 2931.1 506.231 2929.16C505.606 2927.21 505.294 2925.04 505.294 2922.65V2919.25C505.294 2916.86 505.606 2914.7 506.231 2912.76C506.872 2910.8 507.786 2909.13 508.973 2907.74C510.177 2906.35 511.622 2905.28 513.309 2904.53C514.997 2903.78 516.895 2903.41 519.005 2903.41C521.583 2903.41 523.763 2903.89 525.544 2904.86C527.325 2905.83 528.708 2907.17 529.692 2908.89C530.692 2910.59 531.309 2912.57 531.544 2914.82H527.044C526.825 2913.23 526.419 2911.86 525.825 2910.72C525.231 2909.56 524.388 2908.67 523.294 2908.05C522.2 2907.42 520.77 2907.11 519.005 2907.11C517.489 2907.11 516.153 2907.4 514.997 2907.98C513.856 2908.55 512.895 2909.38 512.114 2910.44C511.348 2911.5 510.77 2912.77 510.38 2914.26C509.989 2915.74 509.794 2917.39 509.794 2919.2V2922.65C509.794 2924.32 509.966 2925.89 510.309 2927.36C510.669 2928.83 511.208 2930.12 511.927 2931.23C512.645 2932.34 513.559 2933.21 514.669 2933.85C515.778 2934.48 517.091 2934.79 518.606 2934.79C520.528 2934.79 522.059 2934.48 523.2 2933.88C524.341 2933.27 525.2 2932.39 525.778 2931.25C526.372 2930.11 526.794 2928.74 527.044 2927.15ZM535.903 2925.6V2925.06C535.903 2923.23 536.169 2921.54 536.7 2919.98C537.231 2918.4 537.997 2917.03 538.997 2915.88C539.997 2914.7 541.208 2913.8 542.63 2913.16C544.052 2912.5 545.645 2912.17 547.411 2912.17C549.192 2912.17 550.794 2912.5 552.216 2913.16C553.653 2913.8 554.872 2914.7 555.872 2915.88C556.888 2917.03 557.661 2918.4 558.192 2919.98C558.723 2921.54 558.989 2923.23 558.989 2925.06V2925.6C558.989 2927.43 558.723 2929.12 558.192 2930.69C557.661 2932.25 556.888 2933.62 555.872 2934.79C554.872 2935.95 553.661 2936.85 552.239 2937.51C550.833 2938.15 549.239 2938.47 547.458 2938.47C545.677 2938.47 544.075 2938.15 542.653 2937.51C541.231 2936.85 540.013 2935.95 538.997 2934.79C537.997 2933.62 537.231 2932.25 536.7 2930.69C536.169 2929.12 535.903 2927.43 535.903 2925.6ZM540.239 2925.06V2925.6C540.239 2926.87 540.388 2928.06 540.684 2929.19C540.981 2930.3 541.427 2931.28 542.02 2932.14C542.63 2933 543.388 2933.68 544.294 2934.18C545.2 2934.66 546.255 2934.91 547.458 2934.91C548.645 2934.91 549.684 2934.66 550.575 2934.18C551.481 2933.68 552.231 2933 552.825 2932.14C553.419 2931.28 553.864 2930.3 554.161 2929.19C554.473 2928.06 554.63 2926.87 554.63 2925.6V2925.06C554.63 2923.81 554.473 2922.63 554.161 2921.52C553.864 2920.4 553.411 2919.41 552.802 2918.55C552.208 2917.67 551.458 2916.98 550.552 2916.48C549.661 2915.98 548.614 2915.73 547.411 2915.73C546.223 2915.73 545.177 2915.98 544.27 2916.48C543.38 2916.98 542.63 2917.67 542.02 2918.55C541.427 2919.41 540.981 2920.4 540.684 2921.52C540.388 2922.63 540.239 2923.81 540.239 2925.06ZM568.763 2918.05V2938H564.427V2912.64H568.528L568.763 2918.05ZM567.731 2924.36L565.927 2924.29C565.942 2922.55 566.2 2920.95 566.7 2919.48C567.2 2918 567.903 2916.71 568.809 2915.62C569.716 2914.52 570.794 2913.68 572.044 2913.09C573.309 2912.48 574.708 2912.17 576.239 2912.17C577.489 2912.17 578.614 2912.34 579.614 2912.69C580.614 2913.02 581.466 2913.55 582.169 2914.28C582.888 2915.02 583.434 2915.97 583.809 2917.14C584.184 2918.3 584.372 2919.71 584.372 2921.38V2938H580.013V2921.34C580.013 2920.01 579.817 2918.95 579.427 2918.15C579.036 2917.34 578.466 2916.75 577.716 2916.39C576.966 2916.02 576.044 2915.83 574.95 2915.83C573.872 2915.83 572.888 2916.05 571.997 2916.51C571.122 2916.96 570.364 2917.59 569.723 2918.38C569.098 2919.18 568.606 2920.09 568.247 2921.12C567.903 2922.14 567.731 2923.22 567.731 2924.36ZM601.575 2912.64V2915.97H587.864V2912.64H601.575ZM592.505 2906.48H596.841V2931.72C596.841 2932.58 596.973 2933.23 597.239 2933.66C597.505 2934.1 597.848 2934.39 598.27 2934.53C598.692 2934.67 599.145 2934.74 599.63 2934.74C599.989 2934.74 600.364 2934.71 600.755 2934.65C601.161 2934.57 601.466 2934.51 601.669 2934.46L601.692 2938C601.348 2938.11 600.895 2938.21 600.333 2938.3C599.786 2938.41 599.122 2938.47 598.341 2938.47C597.278 2938.47 596.302 2938.26 595.411 2937.84C594.52 2937.41 593.809 2936.71 593.278 2935.73C592.763 2934.73 592.505 2933.38 592.505 2931.7V2906.48ZM621.614 2933.66V2920.61C621.614 2919.61 621.411 2918.74 621.005 2918.01C620.614 2917.26 620.02 2916.68 619.223 2916.27C618.427 2915.87 617.442 2915.66 616.27 2915.66C615.177 2915.66 614.216 2915.85 613.388 2916.23C612.575 2916.6 611.934 2917.09 611.466 2917.7C611.013 2918.31 610.786 2918.97 610.786 2919.67H606.45C606.45 2918.77 606.684 2917.87 607.153 2916.98C607.622 2916.09 608.294 2915.28 609.169 2914.56C610.059 2913.83 611.122 2913.25 612.356 2912.83C613.606 2912.39 614.997 2912.17 616.528 2912.17C618.372 2912.17 619.997 2912.48 621.403 2913.11C622.825 2913.73 623.934 2914.68 624.731 2915.95C625.544 2917.2 625.95 2918.77 625.95 2920.66V2932.47C625.95 2933.31 626.02 2934.21 626.161 2935.16C626.317 2936.12 626.544 2936.94 626.841 2937.62V2938H622.317C622.098 2937.5 621.927 2936.84 621.802 2936.01C621.677 2935.16 621.614 2934.38 621.614 2933.66ZM622.364 2922.62L622.411 2925.67H618.028C616.794 2925.67 615.692 2925.77 614.723 2925.98C613.755 2926.16 612.942 2926.45 612.286 2926.84C611.63 2927.23 611.13 2927.73 610.786 2928.32C610.442 2928.9 610.27 2929.58 610.27 2930.36C610.27 2931.16 610.45 2931.88 610.809 2932.54C611.169 2933.2 611.708 2933.72 612.427 2934.11C613.161 2934.48 614.059 2934.67 615.122 2934.67C616.45 2934.67 617.622 2934.39 618.638 2933.83C619.653 2933.27 620.458 2932.58 621.052 2931.77C621.661 2930.95 621.989 2930.16 622.036 2929.4L623.888 2931.48C623.778 2932.14 623.481 2932.87 622.997 2933.66C622.513 2934.46 621.864 2935.23 621.052 2935.96C620.255 2936.68 619.302 2937.28 618.192 2937.77C617.098 2938.23 615.864 2938.47 614.489 2938.47C612.77 2938.47 611.263 2938.13 609.966 2937.46C608.684 2936.79 607.684 2935.89 606.966 2934.77C606.263 2933.62 605.911 2932.35 605.911 2930.95C605.911 2929.59 606.177 2928.39 606.708 2927.36C607.239 2926.31 608.005 2925.45 609.005 2924.76C610.005 2924.05 611.208 2923.52 612.614 2923.16C614.02 2922.8 615.591 2922.62 617.325 2922.62H622.364ZM643.388 2912.64V2915.97H629.677V2912.64H643.388ZM634.317 2906.48H638.653V2931.72C638.653 2932.58 638.786 2933.23 639.052 2933.66C639.317 2934.1 639.661 2934.39 640.083 2934.53C640.505 2934.67 640.958 2934.74 641.442 2934.74C641.802 2934.74 642.177 2934.71 642.567 2934.65C642.973 2934.57 643.278 2934.51 643.481 2934.46L643.505 2938C643.161 2938.11 642.708 2938.21 642.145 2938.3C641.598 2938.41 640.934 2938.47 640.153 2938.47C639.091 2938.47 638.114 2938.26 637.223 2937.84C636.333 2937.41 635.622 2936.71 635.091 2935.73C634.575 2934.73 634.317 2933.38 634.317 2931.7V2906.48ZM646.856 2925.6V2925.06C646.856 2923.23 647.122 2921.54 647.653 2919.98C648.184 2918.4 648.95 2917.03 649.95 2915.88C650.95 2914.7 652.161 2913.8 653.583 2913.16C655.005 2912.5 656.598 2912.17 658.364 2912.17C660.145 2912.17 661.747 2912.5 663.169 2913.16C664.606 2913.8 665.825 2914.7 666.825 2915.88C667.841 2917.03 668.614 2918.4 669.145 2919.98C669.677 2921.54 669.942 2923.23 669.942 2925.06V2925.6C669.942 2927.43 669.677 2929.12 669.145 2930.69C668.614 2932.25 667.841 2933.62 666.825 2934.79C665.825 2935.95 664.614 2936.85 663.192 2937.51C661.786 2938.15 660.192 2938.47 658.411 2938.47C656.63 2938.47 655.028 2938.15 653.606 2937.51C652.184 2936.85 650.966 2935.95 649.95 2934.79C648.95 2933.62 648.184 2932.25 647.653 2930.69C647.122 2929.12 646.856 2927.43 646.856 2925.6ZM651.192 2925.06V2925.6C651.192 2926.87 651.341 2928.06 651.638 2929.19C651.934 2930.3 652.38 2931.28 652.973 2932.14C653.583 2933 654.341 2933.68 655.247 2934.18C656.153 2934.66 657.208 2934.91 658.411 2934.91C659.598 2934.91 660.638 2934.66 661.528 2934.18C662.434 2933.68 663.184 2933 663.778 2932.14C664.372 2931.28 664.817 2930.3 665.114 2929.19C665.427 2928.06 665.583 2926.87 665.583 2925.6V2925.06C665.583 2923.81 665.427 2922.63 665.114 2921.52C664.817 2920.4 664.364 2919.41 663.755 2918.55C663.161 2917.67 662.411 2916.98 661.505 2916.48C660.614 2915.98 659.567 2915.73 658.364 2915.73C657.177 2915.73 656.13 2915.98 655.223 2916.48C654.333 2916.98 653.583 2917.67 652.973 2918.55C652.38 2919.41 651.934 2920.4 651.638 2921.52C651.341 2922.63 651.192 2923.81 651.192 2925.06Z" fill="black"/>
<rect x="3" y="2154" width="1440" height="660" fill="#D9D9D9"/>
<rect x="1083.5" y="2287" width="187.26" height="50" fill="#979494"/>
<rect x="856.185" y="2367" width="187.26" height="50" fill="#979494"/>
<rect x="1083.5" y="2367" width="187.26" height="50" fill="#979494"/>
<rect x="856.185" y="2287" width="187.26" height="50" fill="#979494"/>
<rect x="62.082" y="2318" width="640.89" height="48" fill="#979494"/>
<rect x="62.082" y="2382" width="527.733" height="48" fill="#979494"/>
<rect x="62.082" y="2446" width="413.574" height="48" fill="#979494"/>
<path d="M537.861 2229.38C537.861 2228.58 537.736 2227.88 537.486 2227.27C537.251 2226.64 536.829 2226.08 536.22 2225.58C535.626 2225.08 534.798 2224.6 533.736 2224.15C532.689 2223.7 531.361 2223.23 529.751 2222.77C528.064 2222.27 526.54 2221.71 525.181 2221.1C523.822 2220.48 522.657 2219.77 521.689 2218.97C520.72 2218.17 519.978 2217.26 519.462 2216.23C518.947 2215.2 518.689 2214.02 518.689 2212.69C518.689 2211.36 518.962 2210.13 519.509 2209.01C520.056 2207.88 520.837 2206.91 521.853 2206.08C522.884 2205.23 524.111 2204.58 525.532 2204.11C526.954 2203.64 528.54 2203.41 530.29 2203.41C532.853 2203.41 535.025 2203.9 536.806 2204.88C538.603 2205.85 539.97 2207.12 540.907 2208.7C541.845 2210.27 542.314 2211.94 542.314 2213.72H537.814C537.814 2212.44 537.54 2211.3 536.993 2210.32C536.447 2209.32 535.618 2208.54 534.509 2207.98C533.4 2207.4 531.993 2207.11 530.29 2207.11C528.681 2207.11 527.353 2207.35 526.306 2207.84C525.259 2208.32 524.478 2208.98 523.962 2209.8C523.462 2210.63 523.212 2211.58 523.212 2212.64C523.212 2213.36 523.361 2214.02 523.657 2214.61C523.97 2215.19 524.447 2215.73 525.087 2216.23C525.743 2216.73 526.572 2217.19 527.572 2217.61C528.587 2218.03 529.798 2218.44 531.204 2218.83C533.142 2219.38 534.814 2219.98 536.22 2220.66C537.626 2221.33 538.782 2222.09 539.689 2222.93C540.611 2223.76 541.29 2224.7 541.728 2225.77C542.181 2226.81 542.407 2228 542.407 2229.33C542.407 2230.72 542.126 2231.98 541.564 2233.1C541.001 2234.23 540.197 2235.19 539.15 2235.98C538.103 2236.78 536.845 2237.4 535.376 2237.84C533.923 2238.26 532.298 2238.47 530.501 2238.47C528.923 2238.47 527.368 2238.25 525.837 2237.81C524.322 2237.38 522.939 2236.72 521.689 2235.84C520.454 2234.97 519.462 2233.89 518.712 2232.61C517.978 2231.31 517.611 2229.81 517.611 2228.11H522.111C522.111 2229.28 522.337 2230.29 522.79 2231.13C523.243 2231.96 523.861 2232.65 524.642 2233.2C525.439 2233.74 526.337 2234.15 527.337 2234.41C528.353 2234.66 529.407 2234.79 530.501 2234.79C532.079 2234.79 533.415 2234.57 534.509 2234.13C535.603 2233.7 536.431 2233.07 536.993 2232.26C537.572 2231.45 537.861 2230.48 537.861 2229.38ZM546.368 2225.6V2225.06C546.368 2223.23 546.634 2221.54 547.165 2219.98C547.697 2218.4 548.462 2217.03 549.462 2215.88C550.462 2214.7 551.673 2213.8 553.095 2213.16C554.517 2212.5 556.111 2212.17 557.876 2212.17C559.657 2212.17 561.259 2212.5 562.681 2213.16C564.118 2213.8 565.337 2214.7 566.337 2215.88C567.353 2217.03 568.126 2218.4 568.657 2219.98C569.189 2221.54 569.454 2223.23 569.454 2225.06V2225.6C569.454 2227.43 569.189 2229.12 568.657 2230.69C568.126 2232.25 567.353 2233.62 566.337 2234.79C565.337 2235.95 564.126 2236.85 562.704 2237.51C561.298 2238.15 559.704 2238.47 557.923 2238.47C556.142 2238.47 554.54 2238.15 553.118 2237.51C551.697 2236.85 550.478 2235.95 549.462 2234.79C548.462 2233.62 547.697 2232.25 547.165 2230.69C546.634 2229.12 546.368 2227.43 546.368 2225.6ZM550.704 2225.06V2225.6C550.704 2226.87 550.853 2228.06 551.15 2229.19C551.447 2230.3 551.892 2231.28 552.486 2232.14C553.095 2233 553.853 2233.68 554.759 2234.18C555.665 2234.66 556.72 2234.91 557.923 2234.91C559.111 2234.91 560.15 2234.66 561.04 2234.18C561.947 2233.68 562.697 2233 563.29 2232.14C563.884 2231.28 564.329 2230.3 564.626 2229.19C564.939 2228.06 565.095 2226.87 565.095 2225.6V2225.06C565.095 2223.81 564.939 2222.63 564.626 2221.52C564.329 2220.4 563.876 2219.41 563.267 2218.55C562.673 2217.67 561.923 2216.98 561.017 2216.48C560.126 2215.98 559.079 2215.73 557.876 2215.73C556.689 2215.73 555.642 2215.98 554.736 2216.48C553.845 2216.98 553.095 2217.67 552.486 2218.55C551.892 2219.41 551.447 2220.4 551.15 2221.52C550.853 2222.63 550.704 2223.81 550.704 2225.06ZM574.868 2202H579.228V2233.08L578.853 2238H574.868V2202ZM596.361 2225.11V2225.6C596.361 2227.45 596.142 2229.16 595.704 2230.73C595.267 2232.3 594.626 2233.66 593.782 2234.81C592.939 2235.97 591.907 2236.87 590.689 2237.51C589.47 2238.15 588.072 2238.47 586.493 2238.47C584.884 2238.47 583.47 2238.2 582.251 2237.65C581.048 2237.09 580.032 2236.28 579.204 2235.23C578.376 2234.19 577.712 2232.92 577.212 2231.44C576.728 2229.95 576.392 2228.28 576.204 2226.42V2224.27C576.392 2222.39 576.728 2220.71 577.212 2219.23C577.712 2217.74 578.376 2216.48 579.204 2215.43C580.032 2214.37 581.048 2213.56 582.251 2213.02C583.454 2212.45 584.853 2212.17 586.447 2212.17C588.04 2212.17 589.454 2212.48 590.689 2213.11C591.923 2213.72 592.954 2214.59 593.782 2215.73C594.626 2216.88 595.267 2218.24 595.704 2219.84C596.142 2221.41 596.361 2223.17 596.361 2225.11ZM592.001 2225.6V2225.11C592.001 2223.84 591.884 2222.66 591.65 2221.55C591.415 2220.42 591.04 2219.44 590.525 2218.59C590.009 2217.73 589.329 2217.06 588.486 2216.58C587.642 2216.08 586.603 2215.83 585.368 2215.83C584.275 2215.83 583.322 2216.02 582.509 2216.39C581.712 2216.77 581.032 2217.27 580.47 2217.91C579.907 2218.54 579.447 2219.26 579.087 2220.07C578.743 2220.87 578.486 2221.7 578.314 2222.55V2228.2C578.564 2229.3 578.97 2230.35 579.532 2231.37C580.111 2232.37 580.876 2233.19 581.829 2233.83C582.798 2234.47 583.993 2234.79 585.415 2234.79C586.587 2234.79 587.587 2234.55 588.415 2234.09C589.259 2233.6 589.939 2232.94 590.454 2232.09C590.986 2231.25 591.376 2230.27 591.626 2229.16C591.876 2228.05 592.001 2226.87 592.001 2225.6ZM606.181 2216.62V2238H601.845V2212.64H606.064L606.181 2216.62ZM614.103 2212.5L614.079 2216.53C613.72 2216.45 613.376 2216.41 613.048 2216.39C612.736 2216.36 612.376 2216.34 611.97 2216.34C610.97 2216.34 610.087 2216.5 609.322 2216.81C608.556 2217.12 607.907 2217.56 607.376 2218.12C606.845 2218.69 606.423 2219.36 606.111 2220.14C605.814 2220.91 605.618 2221.75 605.525 2222.67L604.306 2223.38C604.306 2221.84 604.454 2220.41 604.751 2219.06C605.064 2217.72 605.54 2216.53 606.181 2215.5C606.822 2214.45 607.634 2213.64 608.618 2213.06C609.618 2212.47 610.806 2212.17 612.181 2212.17C612.493 2212.17 612.853 2212.21 613.259 2212.29C613.665 2212.35 613.947 2212.42 614.103 2212.5ZM628.165 2238.47C626.4 2238.47 624.798 2238.17 623.361 2237.58C621.939 2236.97 620.712 2236.12 619.681 2235.02C618.665 2233.93 617.884 2232.63 617.337 2231.13C616.79 2229.63 616.517 2227.99 616.517 2226.21V2225.23C616.517 2223.16 616.822 2221.33 617.431 2219.72C618.04 2218.09 618.868 2216.72 619.915 2215.59C620.962 2214.47 622.15 2213.62 623.478 2213.04C624.806 2212.46 626.181 2212.17 627.603 2212.17C629.415 2212.17 630.978 2212.48 632.29 2213.11C633.618 2213.73 634.704 2214.61 635.548 2215.73C636.392 2216.84 637.017 2218.16 637.423 2219.67C637.829 2221.17 638.032 2222.81 638.032 2224.59V2226.54H619.095V2223H633.697V2222.67C633.634 2221.55 633.4 2220.45 632.993 2219.39C632.603 2218.33 631.978 2217.45 631.118 2216.77C630.259 2216.08 629.087 2215.73 627.603 2215.73C626.618 2215.73 625.712 2215.95 624.884 2216.37C624.056 2216.77 623.345 2217.38 622.751 2218.2C622.157 2219.01 621.697 2220 621.368 2221.17C621.04 2222.34 620.876 2223.7 620.876 2225.23V2226.21C620.876 2227.41 621.04 2228.55 621.368 2229.61C621.712 2230.66 622.204 2231.58 622.845 2232.38C623.501 2233.17 624.29 2233.8 625.212 2234.25C626.15 2234.7 627.212 2234.93 628.4 2234.93C629.931 2234.93 631.228 2234.62 632.29 2233.99C633.353 2233.37 634.282 2232.53 635.079 2231.48L637.704 2233.57C637.157 2234.4 636.462 2235.19 635.618 2235.94C634.775 2236.69 633.736 2237.3 632.501 2237.77C631.282 2238.23 629.837 2238.47 628.165 2238.47Z" fill="black"/>
<path d="M511.547 1493.62H502.43V1489.94H511.547C513.312 1489.94 514.742 1489.66 515.836 1489.09C516.93 1488.53 517.727 1487.75 518.227 1486.75C518.742 1485.75 519 1484.61 519 1483.33C519 1482.16 518.742 1481.05 518.227 1480.02C517.727 1478.99 516.93 1478.16 515.836 1477.54C514.742 1476.9 513.312 1476.58 511.547 1476.58H503.484V1507H498.961V1472.88H511.547C514.125 1472.88 516.305 1473.32 518.086 1474.21C519.867 1475.1 521.219 1476.34 522.141 1477.91C523.062 1479.48 523.523 1481.27 523.523 1483.28C523.523 1485.47 523.062 1487.34 522.141 1488.88C521.219 1490.43 519.867 1491.61 518.086 1492.42C516.305 1493.22 514.125 1493.62 511.547 1493.62ZM543.258 1502.66V1489.61C543.258 1488.61 543.055 1487.74 542.648 1487.01C542.258 1486.26 541.664 1485.68 540.867 1485.27C540.07 1484.87 539.086 1484.66 537.914 1484.66C536.82 1484.66 535.859 1484.85 535.031 1485.23C534.219 1485.6 533.578 1486.09 533.109 1486.7C532.656 1487.31 532.43 1487.97 532.43 1488.67H528.094C528.094 1487.77 528.328 1486.87 528.797 1485.98C529.266 1485.09 529.938 1484.28 530.812 1483.56C531.703 1482.83 532.766 1482.25 534 1481.83C535.25 1481.39 536.641 1481.17 538.172 1481.17C540.016 1481.17 541.641 1481.48 543.047 1482.11C544.469 1482.73 545.578 1483.68 546.375 1484.95C547.188 1486.2 547.594 1487.77 547.594 1489.66V1501.47C547.594 1502.31 547.664 1503.21 547.805 1504.16C547.961 1505.12 548.188 1505.94 548.484 1506.62V1507H543.961C543.742 1506.5 543.57 1505.84 543.445 1505.01C543.32 1504.16 543.258 1503.38 543.258 1502.66ZM544.008 1491.62L544.055 1494.67H539.672C538.438 1494.67 537.336 1494.77 536.367 1494.98C535.398 1495.16 534.586 1495.45 533.93 1495.84C533.273 1496.23 532.773 1496.73 532.43 1497.32C532.086 1497.9 531.914 1498.58 531.914 1499.36C531.914 1500.16 532.094 1500.88 532.453 1501.54C532.812 1502.2 533.352 1502.72 534.07 1503.11C534.805 1503.48 535.703 1503.67 536.766 1503.67C538.094 1503.67 539.266 1503.39 540.281 1502.83C541.297 1502.27 542.102 1501.58 542.695 1500.77C543.305 1499.95 543.633 1499.16 543.68 1498.4L545.531 1500.48C545.422 1501.14 545.125 1501.87 544.641 1502.66C544.156 1503.46 543.508 1504.23 542.695 1504.96C541.898 1505.68 540.945 1506.28 539.836 1506.77C538.742 1507.23 537.508 1507.47 536.133 1507.47C534.414 1507.47 532.906 1507.13 531.609 1506.46C530.328 1505.79 529.328 1504.89 528.609 1503.77C527.906 1502.62 527.555 1501.35 527.555 1499.95C527.555 1498.59 527.82 1497.39 528.352 1496.36C528.883 1495.31 529.648 1494.45 530.648 1493.76C531.648 1493.05 532.852 1492.52 534.258 1492.16C535.664 1491.8 537.234 1491.62 538.969 1491.62H544.008ZM564.562 1503.91C565.594 1503.91 566.547 1503.7 567.422 1503.27C568.297 1502.85 569.016 1502.27 569.578 1501.54C570.141 1500.79 570.461 1499.94 570.539 1498.98H574.664C574.586 1500.48 574.078 1501.88 573.141 1503.18C572.219 1504.46 571.008 1505.5 569.508 1506.3C568.008 1507.08 566.359 1507.47 564.562 1507.47C562.656 1507.47 560.992 1507.13 559.57 1506.46C558.164 1505.79 556.992 1504.87 556.055 1503.7C555.133 1502.52 554.438 1501.18 553.969 1499.66C553.516 1498.13 553.289 1496.52 553.289 1494.81V1493.83C553.289 1492.12 553.516 1490.52 553.969 1489C554.438 1487.47 555.133 1486.12 556.055 1484.95C556.992 1483.77 558.164 1482.85 559.57 1482.18C560.992 1481.51 562.656 1481.17 564.562 1481.17C566.547 1481.17 568.281 1481.58 569.766 1482.39C571.25 1483.19 572.414 1484.28 573.258 1485.67C574.117 1487.05 574.586 1488.61 574.664 1490.36H570.539C570.461 1489.31 570.164 1488.37 569.648 1487.52C569.148 1486.68 568.461 1486.01 567.586 1485.51C566.727 1484.99 565.719 1484.73 564.562 1484.73C563.234 1484.73 562.117 1485 561.211 1485.53C560.32 1486.05 559.609 1486.75 559.078 1487.64C558.562 1488.52 558.188 1489.49 557.953 1490.57C557.734 1491.63 557.625 1492.72 557.625 1493.83V1494.81C557.625 1495.92 557.734 1497.02 557.953 1498.09C558.172 1499.17 558.539 1500.15 559.055 1501.02C559.586 1501.9 560.297 1502.6 561.188 1503.13C562.094 1503.65 563.219 1503.91 564.562 1503.91ZM578.391 1494.6V1494.06C578.391 1492.23 578.656 1490.54 579.188 1488.98C579.719 1487.4 580.484 1486.03 581.484 1484.88C582.484 1483.7 583.695 1482.8 585.117 1482.16C586.539 1481.5 588.133 1481.17 589.898 1481.17C591.68 1481.17 593.281 1481.5 594.703 1482.16C596.141 1482.8 597.359 1483.7 598.359 1484.88C599.375 1486.03 600.148 1487.4 600.68 1488.98C601.211 1490.54 601.477 1492.23 601.477 1494.06V1494.6C601.477 1496.43 601.211 1498.12 600.68 1499.69C600.148 1501.25 599.375 1502.62 598.359 1503.79C597.359 1504.95 596.148 1505.85 594.727 1506.51C593.32 1507.15 591.727 1507.47 589.945 1507.47C588.164 1507.47 586.562 1507.15 585.141 1506.51C583.719 1505.85 582.5 1504.95 581.484 1503.79C580.484 1502.62 579.719 1501.25 579.188 1499.69C578.656 1498.12 578.391 1496.43 578.391 1494.6ZM582.727 1494.06V1494.6C582.727 1495.87 582.875 1497.06 583.172 1498.19C583.469 1499.3 583.914 1500.28 584.508 1501.14C585.117 1502 585.875 1502.68 586.781 1503.18C587.688 1503.66 588.742 1503.91 589.945 1503.91C591.133 1503.91 592.172 1503.66 593.062 1503.18C593.969 1502.68 594.719 1502 595.312 1501.14C595.906 1500.28 596.352 1499.3 596.648 1498.19C596.961 1497.06 597.117 1495.87 597.117 1494.6V1494.06C597.117 1492.81 596.961 1491.63 596.648 1490.52C596.352 1489.4 595.898 1488.41 595.289 1487.55C594.695 1486.67 593.945 1485.98 593.039 1485.48C592.148 1484.98 591.102 1484.73 589.898 1484.73C588.711 1484.73 587.664 1484.98 586.758 1485.48C585.867 1485.98 585.117 1486.67 584.508 1487.55C583.914 1488.41 583.469 1489.4 583.172 1490.52C582.875 1491.63 582.727 1492.81 582.727 1494.06ZM617.531 1481.64V1484.97H603.82V1481.64H617.531ZM608.461 1475.48H612.797V1500.72C612.797 1501.58 612.93 1502.23 613.195 1502.66C613.461 1503.1 613.805 1503.39 614.227 1503.53C614.648 1503.67 615.102 1503.74 615.586 1503.74C615.945 1503.74 616.32 1503.71 616.711 1503.65C617.117 1503.57 617.422 1503.51 617.625 1503.46L617.648 1507C617.305 1507.11 616.852 1507.21 616.289 1507.3C615.742 1507.41 615.078 1507.47 614.297 1507.47C613.234 1507.47 612.258 1507.26 611.367 1506.84C610.477 1506.41 609.766 1505.71 609.234 1504.73C608.719 1503.73 608.461 1502.38 608.461 1500.7V1475.48ZM633.141 1507.47C631.375 1507.47 629.773 1507.17 628.336 1506.58C626.914 1505.97 625.688 1505.12 624.656 1504.02C623.641 1502.93 622.859 1501.63 622.312 1500.13C621.766 1498.63 621.492 1496.99 621.492 1495.21V1494.23C621.492 1492.16 621.797 1490.33 622.406 1488.72C623.016 1487.09 623.844 1485.72 624.891 1484.59C625.938 1483.47 627.125 1482.62 628.453 1482.04C629.781 1481.46 631.156 1481.17 632.578 1481.17C634.391 1481.17 635.953 1481.48 637.266 1482.11C638.594 1482.73 639.68 1483.61 640.523 1484.73C641.367 1485.84 641.992 1487.16 642.398 1488.67C642.805 1490.17 643.008 1491.81 643.008 1493.59V1495.54H624.07V1492H638.672V1491.67C638.609 1490.55 638.375 1489.45 637.969 1488.39C637.578 1487.33 636.953 1486.45 636.094 1485.77C635.234 1485.08 634.062 1484.73 632.578 1484.73C631.594 1484.73 630.688 1484.95 629.859 1485.37C629.031 1485.77 628.32 1486.38 627.727 1487.2C627.133 1488.01 626.672 1489 626.344 1490.17C626.016 1491.34 625.852 1492.7 625.852 1494.23V1495.21C625.852 1496.41 626.016 1497.55 626.344 1498.61C626.688 1499.66 627.18 1500.58 627.82 1501.38C628.477 1502.17 629.266 1502.8 630.188 1503.25C631.125 1503.7 632.188 1503.93 633.375 1503.93C634.906 1503.93 636.203 1503.62 637.266 1502.99C638.328 1502.37 639.258 1501.53 640.055 1500.48L642.68 1502.57C642.133 1503.4 641.438 1504.19 640.594 1504.94C639.75 1505.69 638.711 1506.3 637.477 1506.77C636.258 1507.23 634.812 1507.47 633.141 1507.47ZM662.836 1500.27C662.836 1499.65 662.695 1499.07 662.414 1498.54C662.148 1497.99 661.594 1497.5 660.75 1497.06C659.922 1496.61 658.672 1496.22 657 1495.89C655.594 1495.59 654.32 1495.24 653.18 1494.84C652.055 1494.43 651.094 1493.94 650.297 1493.36C649.516 1492.78 648.914 1492.1 648.492 1491.32C648.07 1490.54 647.859 1489.62 647.859 1488.58C647.859 1487.58 648.078 1486.63 648.516 1485.74C648.969 1484.85 649.602 1484.06 650.414 1483.38C651.242 1482.69 652.234 1482.15 653.391 1481.76C654.547 1481.37 655.836 1481.17 657.258 1481.17C659.289 1481.17 661.023 1481.53 662.461 1482.25C663.898 1482.97 665 1483.93 665.766 1485.13C666.531 1486.32 666.914 1487.64 666.914 1489.09H662.578C662.578 1488.39 662.367 1487.71 661.945 1487.05C661.539 1486.38 660.938 1485.83 660.141 1485.39C659.359 1484.95 658.398 1484.73 657.258 1484.73C656.055 1484.73 655.078 1484.92 654.328 1485.3C653.594 1485.66 653.055 1486.12 652.711 1486.68C652.383 1487.24 652.219 1487.84 652.219 1488.46C652.219 1488.93 652.297 1489.35 652.453 1489.73C652.625 1490.09 652.922 1490.42 653.344 1490.73C653.766 1491.03 654.359 1491.31 655.125 1491.58C655.891 1491.84 656.867 1492.11 658.055 1492.38C660.133 1492.84 661.844 1493.41 663.188 1494.06C664.531 1494.72 665.531 1495.52 666.188 1496.48C666.844 1497.43 667.172 1498.59 667.172 1499.95C667.172 1501.05 666.938 1502.07 666.469 1502.99C666.016 1503.91 665.352 1504.71 664.477 1505.38C663.617 1506.04 662.586 1506.55 661.383 1506.93C660.195 1507.29 658.859 1507.47 657.375 1507.47C655.141 1507.47 653.25 1507.07 651.703 1506.27C650.156 1505.48 648.984 1504.45 648.188 1503.18C647.391 1501.91 646.992 1500.58 646.992 1499.17H651.352C651.414 1500.36 651.758 1501.3 652.383 1502.01C653.008 1502.7 653.773 1503.19 654.68 1503.48C655.586 1503.77 656.484 1503.91 657.375 1503.91C658.562 1503.91 659.555 1503.75 660.352 1503.44C661.164 1503.12 661.781 1502.7 662.203 1502.15C662.625 1501.6 662.836 1500.98 662.836 1500.27Z" fill="black"/>
<rect x="949" y="1584" width="413" height="510" fill="#D9D9D9"/>
<rect x="968.761" y="1716" width="372.49" height="40" fill="#979494"/>
<rect x="968.761" y="1776" width="296.411" height="40" fill="#979494"/>
<rect x="968.761" y="1836" width="243.057" height="40" fill="#979494"/>
<rect x="495" y="1584" width="414" height="510" fill="#D9D9D9"/>
<rect x="514" y="1716" width="377" height="40" fill="#979494"/>
<rect x="514" y="1776" width="300" height="40" fill="#979494"/>
<rect x="514" y="1836" width="246" height="40" fill="#979494"/>
<rect x="42" y="1584" width="413" height="510" fill="#D9D9D9"/>
<rect x="73.6172" y="1722" width="372.49" height="40" fill="#979494"/>
<rect x="73.6172" y="1782" width="296.411" height="40" fill="#979494"/>
<rect x="73.6172" y="1842" width="243.057" height="40" fill="#979494"/>
<rect x="1129" y="1362" width="202.545" height="41.1378" fill="#D9D9D9"/>
<rect x="1080" y="1046" width="300" height="300" rx="150" fill="#D9D9D9"/>
<rect x="789" y="1362" width="202.545" height="41.1378" fill="#D9D9D9"/>
<rect x="740" y="1046" width="300" height="300" rx="150" fill="#D9D9D9"/>
<rect x="453" y="1362" width="202.545" height="41.1378" fill="#D9D9D9"/>
<rect x="404" y="1046" width="300" height="300" rx="150" fill="#D9D9D9"/>
<rect x="109" y="1365" width="202.545" height="41.1378" fill="#D9D9D9"/>
<rect x="60" y="1046" width="300" height="300" rx="150" fill="#D9D9D9"/>
<path d="M525.547 923.617H516.43V919.938H525.547C527.312 919.938 528.742 919.656 529.836 919.094C530.93 918.531 531.727 917.75 532.227 916.75C532.742 915.75 533 914.609 533 913.328C533 912.156 532.742 911.055 532.227 910.023C531.727 908.992 530.93 908.164 529.836 907.539C528.742 906.898 527.312 906.578 525.547 906.578H517.484V937H512.961V902.875H525.547C528.125 902.875 530.305 903.32 532.086 904.211C533.867 905.102 535.219 906.336 536.141 907.914C537.062 909.477 537.523 911.266 537.523 913.281C537.523 915.469 537.062 917.336 536.141 918.883C535.219 920.43 533.867 921.609 532.086 922.422C530.305 923.219 528.125 923.617 525.547 923.617ZM546.922 915.625V937H542.586V911.641H546.805L546.922 915.625ZM554.844 911.5L554.82 915.531C554.461 915.453 554.117 915.406 553.789 915.391C553.477 915.359 553.117 915.344 552.711 915.344C551.711 915.344 550.828 915.5 550.062 915.812C549.297 916.125 548.648 916.562 548.117 917.125C547.586 917.688 547.164 918.359 546.852 919.141C546.555 919.906 546.359 920.75 546.266 921.672L545.047 922.375C545.047 920.844 545.195 919.406 545.492 918.062C545.805 916.719 546.281 915.531 546.922 914.5C547.562 913.453 548.375 912.641 549.359 912.062C550.359 911.469 551.547 911.172 552.922 911.172C553.234 911.172 553.594 911.211 554 911.289C554.406 911.352 554.688 911.422 554.844 911.5ZM557.234 924.602V924.062C557.234 922.234 557.5 920.539 558.031 918.977C558.562 917.398 559.328 916.031 560.328 914.875C561.328 913.703 562.539 912.797 563.961 912.156C565.383 911.5 566.977 911.172 568.742 911.172C570.523 911.172 572.125 911.5 573.547 912.156C574.984 912.797 576.203 913.703 577.203 914.875C578.219 916.031 578.992 917.398 579.523 918.977C580.055 920.539 580.32 922.234 580.32 924.062V924.602C580.32 926.43 580.055 928.125 579.523 929.688C578.992 931.25 578.219 932.617 577.203 933.789C576.203 934.945 574.992 935.852 573.57 936.508C572.164 937.148 570.57 937.469 568.789 937.469C567.008 937.469 565.406 937.148 563.984 936.508C562.562 935.852 561.344 934.945 560.328 933.789C559.328 932.617 558.562 931.25 558.031 929.688C557.5 928.125 557.234 926.43 557.234 924.602ZM561.57 924.062V924.602C561.57 925.867 561.719 927.062 562.016 928.188C562.312 929.297 562.758 930.281 563.352 931.141C563.961 932 564.719 932.68 565.625 933.18C566.531 933.664 567.586 933.906 568.789 933.906C569.977 933.906 571.016 933.664 571.906 933.18C572.812 932.68 573.562 932 574.156 931.141C574.75 930.281 575.195 929.297 575.492 928.188C575.805 927.062 575.961 925.867 575.961 924.602V924.062C575.961 922.812 575.805 921.633 575.492 920.523C575.195 919.398 574.742 918.406 574.133 917.547C573.539 916.672 572.789 915.984 571.883 915.484C570.992 914.984 569.945 914.734 568.742 914.734C567.555 914.734 566.508 914.984 565.602 915.484C564.711 915.984 563.961 916.672 563.352 917.547C562.758 918.406 562.312 919.398 562.016 920.523C561.719 921.633 561.57 922.812 561.57 924.062ZM601.742 932.078V901H606.102V937H602.117L601.742 932.078ZM584.68 924.602V924.109C584.68 922.172 584.914 920.414 585.383 918.836C585.867 917.242 586.547 915.875 587.422 914.734C588.312 913.594 589.367 912.719 590.586 912.109C591.82 911.484 593.195 911.172 594.711 911.172C596.305 911.172 597.695 911.453 598.883 912.016C600.086 912.562 601.102 913.367 601.93 914.43C602.773 915.477 603.438 916.742 603.922 918.227C604.406 919.711 604.742 921.391 604.93 923.266V925.422C604.758 927.281 604.422 928.953 603.922 930.438C603.438 931.922 602.773 933.188 601.93 934.234C601.102 935.281 600.086 936.086 598.883 936.648C597.68 937.195 596.273 937.469 594.664 937.469C593.18 937.469 591.82 937.148 590.586 936.508C589.367 935.867 588.312 934.969 587.422 933.812C586.547 932.656 585.867 931.297 585.383 929.734C584.914 928.156 584.68 926.445 584.68 924.602ZM589.039 924.109V924.602C589.039 925.867 589.164 927.055 589.414 928.164C589.68 929.273 590.086 930.25 590.633 931.094C591.18 931.938 591.875 932.602 592.719 933.086C593.562 933.555 594.57 933.789 595.742 933.789C597.18 933.789 598.359 933.484 599.281 932.875C600.219 932.266 600.969 931.461 601.531 930.461C602.094 929.461 602.531 928.375 602.844 927.203V921.555C602.656 920.695 602.383 919.867 602.023 919.07C601.68 918.258 601.227 917.539 600.664 916.914C600.117 916.273 599.438 915.766 598.625 915.391C597.828 915.016 596.883 914.828 595.789 914.828C594.602 914.828 593.578 915.078 592.719 915.578C591.875 916.062 591.18 916.734 590.633 917.594C590.086 918.438 589.68 919.422 589.414 920.547C589.164 921.656 589.039 922.844 589.039 924.109ZM628.367 931.141V911.641H632.727V937H628.578L628.367 931.141ZM629.188 925.797L630.992 925.75C630.992 927.438 630.812 929 630.453 930.438C630.109 931.859 629.547 933.094 628.766 934.141C627.984 935.188 626.961 936.008 625.695 936.602C624.43 937.18 622.891 937.469 621.078 937.469C619.844 937.469 618.711 937.289 617.68 936.93C616.664 936.57 615.789 936.016 615.055 935.266C614.32 934.516 613.75 933.539 613.344 932.336C612.953 931.133 612.758 929.688 612.758 928V911.641H617.094V928.047C617.094 929.188 617.219 930.133 617.469 930.883C617.734 931.617 618.086 932.203 618.523 932.641C618.977 933.062 619.477 933.359 620.023 933.531C620.586 933.703 621.164 933.789 621.758 933.789C623.602 933.789 625.062 933.438 626.141 932.734C627.219 932.016 627.992 931.055 628.461 929.852C628.945 928.633 629.188 927.281 629.188 925.797ZM649.953 911.641V914.969H636.242V911.641H649.953ZM640.883 905.477H645.219V930.719C645.219 931.578 645.352 932.227 645.617 932.664C645.883 933.102 646.227 933.391 646.648 933.531C647.07 933.672 647.523 933.742 648.008 933.742C648.367 933.742 648.742 933.711 649.133 933.648C649.539 933.57 649.844 933.508 650.047 933.461L650.07 937C649.727 937.109 649.273 937.211 648.711 937.305C648.164 937.414 647.5 937.469 646.719 937.469C645.656 937.469 644.68 937.258 643.789 936.836C642.898 936.414 642.188 935.711 641.656 934.727C641.141 933.727 640.883 932.383 640.883 930.695V905.477ZM653.422 924.602V924.062C653.422 922.234 653.688 920.539 654.219 918.977C654.75 917.398 655.516 916.031 656.516 914.875C657.516 913.703 658.727 912.797 660.148 912.156C661.57 911.5 663.164 911.172 664.93 911.172C666.711 911.172 668.312 911.5 669.734 912.156C671.172 912.797 672.391 913.703 673.391 914.875C674.406 916.031 675.18 917.398 675.711 918.977C676.242 920.539 676.508 922.234 676.508 924.062V924.602C676.508 926.43 676.242 928.125 675.711 929.688C675.18 931.25 674.406 932.617 673.391 933.789C672.391 934.945 671.18 935.852 669.758 936.508C668.352 937.148 666.758 937.469 664.977 937.469C663.195 937.469 661.594 937.148 660.172 936.508C658.75 935.852 657.531 934.945 656.516 933.789C655.516 932.617 654.75 931.25 654.219 929.688C653.688 928.125 653.422 926.43 653.422 924.602ZM657.758 924.062V924.602C657.758 925.867 657.906 927.062 658.203 928.188C658.5 929.297 658.945 930.281 659.539 931.141C660.148 932 660.906 932.68 661.812 933.18C662.719 933.664 663.773 933.906 664.977 933.906C666.164 933.906 667.203 933.664 668.094 933.18C669 932.68 669.75 932 670.344 931.141C670.938 930.281 671.383 929.297 671.68 928.188C671.992 927.062 672.148 925.867 672.148 924.602V924.062C672.148 922.812 671.992 921.633 671.68 920.523C671.383 919.398 670.93 918.406 670.32 917.547C669.727 916.672 668.977 915.984 668.07 915.484C667.18 914.984 666.133 914.734 664.93 914.734C663.742 914.734 662.695 914.984 661.789 915.484C660.898 915.984 660.148 916.672 659.539 917.547C658.945 918.406 658.5 919.398 658.203 920.523C657.906 921.633 657.758 922.812 657.758 924.062ZM696.711 930.273C696.711 929.648 696.57 929.07 696.289 928.539C696.023 927.992 695.469 927.5 694.625 927.062C693.797 926.609 692.547 926.219 690.875 925.891C689.469 925.594 688.195 925.242 687.055 924.836C685.93 924.43 684.969 923.938 684.172 923.359C683.391 922.781 682.789 922.102 682.367 921.32C681.945 920.539 681.734 919.625 681.734 918.578C681.734 917.578 681.953 916.633 682.391 915.742C682.844 914.852 683.477 914.062 684.289 913.375C685.117 912.688 686.109 912.148 687.266 911.758C688.422 911.367 689.711 911.172 691.133 911.172C693.164 911.172 694.898 911.531 696.336 912.25C697.773 912.969 698.875 913.93 699.641 915.133C700.406 916.32 700.789 917.641 700.789 919.094H696.453C696.453 918.391 696.242 917.711 695.82 917.055C695.414 916.383 694.812 915.828 694.016 915.391C693.234 914.953 692.273 914.734 691.133 914.734C689.93 914.734 688.953 914.922 688.203 915.297C687.469 915.656 686.93 916.117 686.586 916.68C686.258 917.242 686.094 917.836 686.094 918.461C686.094 918.93 686.172 919.352 686.328 919.727C686.5 920.086 686.797 920.422 687.219 920.734C687.641 921.031 688.234 921.312 689 921.578C689.766 921.844 690.742 922.109 691.93 922.375C694.008 922.844 695.719 923.406 697.062 924.062C698.406 924.719 699.406 925.523 700.062 926.477C700.719 927.43 701.047 928.586 701.047 929.945C701.047 931.055 700.812 932.07 700.344 932.992C699.891 933.914 699.227 934.711 698.352 935.383C697.492 936.039 696.461 936.555 695.258 936.93C694.07 937.289 692.734 937.469 691.25 937.469C689.016 937.469 687.125 937.07 685.578 936.273C684.031 935.477 682.859 934.445 682.062 933.18C681.266 931.914 680.867 930.578 680.867 929.172H685.227C685.289 930.359 685.633 931.305 686.258 932.008C686.883 932.695 687.648 933.188 688.555 933.484C689.461 933.766 690.359 933.906 691.25 933.906C692.438 933.906 693.43 933.75 694.227 933.438C695.039 933.125 695.656 932.695 696.078 932.148C696.5 931.602 696.711 930.977 696.711 930.273Z" fill="black"/>
<rect y="144" width="1440" height="689" fill="#D9D9D9"/>
<rect x="22" y="595" width="202.909" height="60" fill="#979494"/>
<path d="M93.2031 625.512H88.8203L88.7969 623.098H92.4766C93.125 623.098 93.6562 623.016 94.0703 622.852C94.4844 622.68 94.793 622.434 94.9961 622.113C95.207 621.785 95.3125 621.387 95.3125 620.918C95.3125 620.387 95.2109 619.957 95.0078 619.629C94.8125 619.301 94.5039 619.062 94.082 618.914C93.668 618.766 93.1328 618.691 92.4766 618.691H90.0391V633H86.5234V615.938H92.4766C93.4688 615.938 94.3555 616.031 95.1367 616.219C95.9258 616.406 96.5938 616.691 97.1406 617.074C97.6875 617.457 98.1055 617.941 98.3945 618.527C98.6836 619.105 98.8281 619.793 98.8281 620.59C98.8281 621.293 98.668 621.941 98.3477 622.535C98.0352 623.129 97.5391 623.613 96.8594 623.988C96.1875 624.363 95.3086 624.57 94.2227 624.609L93.2031 625.512ZM93.0508 633H87.8594L89.2305 630.258H93.0508C93.668 630.258 94.1719 630.16 94.5625 629.965C94.9531 629.762 95.2422 629.488 95.4297 629.145C95.6172 628.801 95.7109 628.406 95.7109 627.961C95.7109 627.461 95.625 627.027 95.4531 626.66C95.2891 626.293 95.0234 626.012 94.6562 625.816C94.2891 625.613 93.8047 625.512 93.2031 625.512H89.8164L89.8398 623.098H94.0586L94.8672 624.047C95.9062 624.031 96.7422 624.215 97.375 624.598C98.0156 624.973 98.4805 625.461 98.7695 626.062C99.0664 626.664 99.2148 627.309 99.2148 627.996C99.2148 629.09 98.9766 630.012 98.5 630.762C98.0234 631.504 97.3242 632.062 96.4023 632.438C95.4883 632.812 94.3711 633 93.0508 633ZM109.152 615.938V633H105.648V615.938H109.152ZM114.402 615.938V618.691H100.48V615.938H114.402ZM130.293 615.938V633H126.777L119.922 621.562V633H116.406V615.938H119.922L126.789 627.387V615.938H130.293Z" fill="black"/>
<rect x="741.818" y="219" width="698.182" height="464" fill="white"/>
<path d="M1043.26 441.938V459H1039.76V441.938H1043.26ZM1048.16 441.938H1051.14L1055.52 454.465L1059.9 441.938H1062.88L1056.71 459H1054.32L1048.16 441.938ZM1046.55 441.938H1049.52L1050.06 454.148V459H1046.55V441.938ZM1061.52 441.938H1064.5V459H1060.98V454.148L1061.52 441.938ZM1081.1 450.082V456.844C1080.84 457.164 1080.43 457.512 1079.87 457.887C1079.32 458.254 1078.6 458.57 1077.73 458.836C1076.85 459.102 1075.79 459.234 1074.55 459.234C1073.45 459.234 1072.45 459.055 1071.54 458.695C1070.63 458.328 1069.85 457.793 1069.2 457.09C1068.55 456.387 1068.05 455.527 1067.7 454.512C1067.34 453.488 1067.17 452.32 1067.17 451.008V449.941C1067.17 448.629 1067.34 447.461 1067.67 446.438C1068.02 445.414 1068.5 444.551 1069.14 443.848C1069.77 443.145 1070.52 442.609 1071.4 442.242C1072.27 441.875 1073.25 441.691 1074.32 441.691C1075.8 441.691 1077.02 441.934 1077.97 442.418C1078.93 442.895 1079.65 443.559 1080.15 444.41C1080.66 445.254 1080.97 446.223 1081.09 447.316H1077.68C1077.59 446.738 1077.43 446.234 1077.19 445.805C1076.95 445.375 1076.6 445.039 1076.14 444.797C1075.7 444.555 1075.12 444.434 1074.41 444.434C1073.82 444.434 1073.3 444.555 1072.84 444.797C1072.39 445.031 1072 445.379 1071.69 445.84C1071.38 446.301 1071.14 446.871 1070.98 447.551C1070.81 448.23 1070.73 449.02 1070.73 449.918V451.008C1070.73 451.898 1070.82 452.688 1070.99 453.375C1071.16 454.055 1071.41 454.629 1071.75 455.098C1072.09 455.559 1072.52 455.906 1073.02 456.141C1073.52 456.375 1074.1 456.492 1074.76 456.492C1075.32 456.492 1075.78 456.445 1076.14 456.352C1076.52 456.258 1076.82 456.145 1077.05 456.012C1077.28 455.871 1077.46 455.738 1077.59 455.613V452.59H1074.38V450.082H1081.1Z" fill="black"/>
<rect x="60" y="234" width="640" height="48" fill="#979494"/>
<rect x="60" y="298" width="527" height="48" fill="#979494"/>
<rect x="60" y="362" width="413" height="48" fill="#979494"/>
<rect x="1193" width="187" height="80" fill="#979494"/>
<path d="M1265.94 41.0156H1260.09L1260.06 37.7969H1264.97C1265.83 37.7969 1266.54 37.6875 1267.09 37.4688C1267.65 37.2396 1268.06 36.9115 1268.33 36.4844C1268.61 36.0469 1268.75 35.5156 1268.75 34.8906C1268.75 34.1823 1268.61 33.6094 1268.34 33.1719C1268.08 32.7344 1267.67 32.4167 1267.11 32.2188C1266.56 32.0208 1265.84 31.9219 1264.97 31.9219H1261.72V51H1257.03V28.25H1264.97C1266.29 28.25 1267.47 28.375 1268.52 28.625C1269.57 28.875 1270.46 29.2552 1271.19 29.7656C1271.92 30.276 1272.47 30.9219 1272.86 31.7031C1273.24 32.474 1273.44 33.3906 1273.44 34.4531C1273.44 35.3906 1273.22 36.2552 1272.8 37.0469C1272.38 37.8385 1271.72 38.4844 1270.81 38.9844C1269.92 39.4844 1268.74 39.7604 1267.3 39.8125L1265.94 41.0156ZM1265.73 51H1258.81L1260.64 47.3438H1265.73C1266.56 47.3438 1267.23 47.2135 1267.75 46.9531C1268.27 46.6823 1268.66 46.3177 1268.91 45.8594C1269.16 45.401 1269.28 44.875 1269.28 44.2812C1269.28 43.6146 1269.17 43.0365 1268.94 42.5469C1268.72 42.0573 1268.36 41.6823 1267.88 41.4219C1267.39 41.151 1266.74 41.0156 1265.94 41.0156H1261.42L1261.45 37.7969H1267.08L1268.16 39.0625C1269.54 39.0417 1270.66 39.2865 1271.5 39.7969C1272.35 40.2969 1272.97 40.9479 1273.36 41.75C1273.76 42.5521 1273.95 43.4115 1273.95 44.3281C1273.95 45.7865 1273.64 47.0156 1273 48.0156C1272.36 49.0052 1271.43 49.75 1270.2 50.25C1268.98 50.75 1267.49 51 1265.73 51ZM1287.2 28.25V51H1282.53V28.25H1287.2ZM1294.2 28.25V31.9219H1275.64V28.25H1294.2ZM1315.39 28.25V51H1310.7L1301.56 35.75V51H1296.88V28.25H1301.56L1310.72 43.5156V28.25H1315.39Z" fill="black"/>
<rect x="627" width="413" height="80" fill="#D9D9D9"/>
<path d="M793.172 28.25H797.141L802.984 44.9531L808.828 28.25H812.797L804.578 51H801.391L793.172 28.25ZM791.031 28.25H794.984L795.703 44.5312V51H791.031V28.25ZM810.984 28.25H814.953V51H810.266V44.5312L810.984 28.25ZM834.328 47.3438V51H822.219V47.3438H834.328ZM823.75 28.25V51H819.062V28.25H823.75ZM832.75 37.5156V41.0781H822.219V37.5156H832.75ZM834.312 28.25V31.9219H822.219V28.25H834.312ZM855.578 28.25V51H850.891L841.75 35.75V51H837.062V28.25H841.75L850.906 43.5156V28.25H855.578ZM872.219 28.25H876.891V43.2812C876.891 45.0312 876.516 46.5052 875.766 47.7031C875.026 48.901 874 49.8021 872.688 50.4062C871.385 51.0104 869.885 51.3125 868.188 51.3125C866.49 51.3125 864.979 51.0104 863.656 50.4062C862.344 49.8021 861.312 48.901 860.562 47.7031C859.823 46.5052 859.453 45.0312 859.453 43.2812V28.25H864.141V43.2812C864.141 44.3021 864.302 45.1354 864.625 45.7812C864.948 46.4271 865.411 46.901 866.016 47.2031C866.63 47.5052 867.354 47.6562 868.188 47.6562C869.042 47.6562 869.766 47.5052 870.359 47.2031C870.964 46.901 871.422 46.4271 871.734 45.7812C872.057 45.1354 872.219 44.3021 872.219 43.2812V28.25Z" fill="black"/>
<rect x="60" y="4" width="187" height="80" fill="#D9D9D9"/>
<path d="M128.656 51.3438V55H117.203V51.3438H128.656ZM118.719 32.25V55H114.031V32.25H118.719ZM149 43.0938V44.1719C149 45.901 148.766 47.4531 148.297 48.8281C147.828 50.2031 147.167 51.375 146.312 52.3438C145.458 53.3021 144.438 54.0365 143.25 54.5469C142.073 55.0573 140.766 55.3125 139.328 55.3125C137.901 55.3125 136.594 55.0573 135.406 54.5469C134.229 54.0365 133.208 53.3021 132.344 52.3438C131.479 51.375 130.807 50.2031 130.328 48.8281C129.859 47.4531 129.625 45.901 129.625 44.1719V43.0938C129.625 41.3542 129.859 39.8021 130.328 38.4375C130.797 37.0625 131.458 35.8906 132.312 34.9219C133.177 33.9531 134.198 33.2135 135.375 32.7031C136.562 32.1927 137.87 31.9375 139.297 31.9375C140.734 31.9375 142.042 32.1927 143.219 32.7031C144.406 33.2135 145.427 33.9531 146.281 34.9219C147.146 35.8906 147.812 37.0625 148.281 38.4375C148.76 39.8021 149 41.3542 149 43.0938ZM144.266 44.1719V43.0625C144.266 41.8542 144.156 40.7917 143.938 39.875C143.719 38.9583 143.396 38.1875 142.969 37.5625C142.542 36.9375 142.021 36.4688 141.406 36.1562C140.792 35.8333 140.089 35.6719 139.297 35.6719C138.505 35.6719 137.802 35.8333 137.188 36.1562C136.583 36.4688 136.068 36.9375 135.641 37.5625C135.224 38.1875 134.906 38.9583 134.688 39.875C134.469 40.7917 134.359 41.8542 134.359 43.0625V44.1719C134.359 45.3698 134.469 46.4323 134.688 47.3594C134.906 48.276 135.229 49.0521 135.656 49.6875C136.083 50.3125 136.604 50.7865 137.219 51.1094C137.833 51.4323 138.536 51.5938 139.328 51.5938C140.12 51.5938 140.823 51.4323 141.438 51.1094C142.052 50.7865 142.568 50.3125 142.984 49.6875C143.401 49.0521 143.719 48.276 143.938 47.3594C144.156 46.4323 144.266 45.3698 144.266 44.1719ZM170.406 43.1094V52.125C170.052 52.5521 169.505 53.0156 168.766 53.5156C168.026 54.0052 167.073 54.4271 165.906 54.7812C164.74 55.1354 163.328 55.3125 161.672 55.3125C160.203 55.3125 158.865 55.0729 157.656 54.5938C156.448 54.1042 155.406 53.3906 154.531 52.4531C153.667 51.5156 153 50.3698 152.531 49.0156C152.062 47.651 151.828 46.0938 151.828 44.3438V42.9219C151.828 41.1719 152.052 39.6146 152.5 38.25C152.958 36.8854 153.609 35.7344 154.453 34.7969C155.297 33.8594 156.302 33.1458 157.469 32.6562C158.635 32.1667 159.932 31.9219 161.359 31.9219C163.339 31.9219 164.964 32.2448 166.234 32.8906C167.505 33.526 168.474 34.4115 169.141 35.5469C169.818 36.6719 170.234 37.9635 170.391 39.4219H165.844C165.729 38.651 165.51 37.9792 165.188 37.4062C164.865 36.8333 164.401 36.3854 163.797 36.0625C163.203 35.7396 162.432 35.5781 161.484 35.5781C160.703 35.5781 160.005 35.7396 159.391 36.0625C158.786 36.375 158.276 36.8385 157.859 37.4531C157.443 38.0677 157.125 38.8281 156.906 39.7344C156.688 40.6406 156.578 41.6927 156.578 42.8906V44.3438C156.578 45.5312 156.693 46.5833 156.922 47.5C157.151 48.4062 157.49 49.1719 157.938 49.7969C158.396 50.4115 158.958 50.875 159.625 51.1875C160.292 51.5 161.068 51.6562 161.953 51.6562C162.693 51.6562 163.307 51.5938 163.797 51.4688C164.297 51.3438 164.698 51.1927 165 51.0156C165.312 50.8281 165.552 50.651 165.719 50.4844V46.4531H161.438V43.1094H170.406ZM192.875 43.0938V44.1719C192.875 45.901 192.641 47.4531 192.172 48.8281C191.703 50.2031 191.042 51.375 190.188 52.3438C189.333 53.3021 188.312 54.0365 187.125 54.5469C185.948 55.0573 184.641 55.3125 183.203 55.3125C181.776 55.3125 180.469 55.0573 179.281 54.5469C178.104 54.0365 177.083 53.3021 176.219 52.3438C175.354 51.375 174.682 50.2031 174.203 48.8281C173.734 47.4531 173.5 45.901 173.5 44.1719V43.0938C173.5 41.3542 173.734 39.8021 174.203 38.4375C174.672 37.0625 175.333 35.8906 176.188 34.9219C177.052 33.9531 178.073 33.2135 179.25 32.7031C180.438 32.1927 181.745 31.9375 183.172 31.9375C184.609 31.9375 185.917 32.1927 187.094 32.7031C188.281 33.2135 189.302 33.9531 190.156 34.9219C191.021 35.8906 191.688 37.0625 192.156 38.4375C192.635 39.8021 192.875 41.3542 192.875 43.0938ZM188.141 44.1719V43.0625C188.141 41.8542 188.031 40.7917 187.812 39.875C187.594 38.9583 187.271 38.1875 186.844 37.5625C186.417 36.9375 185.896 36.4688 185.281 36.1562C184.667 35.8333 183.964 35.6719 183.172 35.6719C182.38 35.6719 181.677 35.8333 181.062 36.1562C180.458 36.4688 179.943 36.9375 179.516 37.5625C179.099 38.1875 178.781 38.9583 178.562 39.875C178.344 40.7917 178.234 41.8542 178.234 43.0625V44.1719C178.234 45.3698 178.344 46.4323 178.562 47.3594C178.781 48.276 179.104 49.0521 179.531 49.6875C179.958 50.3125 180.479 50.7865 181.094 51.1094C181.708 51.4323 182.411 51.5938 183.203 51.5938C183.995 51.5938 184.698 51.4323 185.312 51.1094C185.927 50.7865 186.443 50.3125 186.859 49.6875C187.276 49.0521 187.594 48.276 187.812 47.3594C188.031 46.4323 188.141 45.3698 188.141 44.1719Z" fill="black"/>
</g>
<defs>
<filter id="filter0_d_2_3" x="1107.19" y="3513.48" width="26.2503" height="11.4272" filterUnits="userSpaceOnUse" color-interpolation-filters="sRGB">
<feFlood flood-opacity="0" result="BackgroundImageFix"/>
<feColorMatrix in="SourceAlpha" type="matrix" values="0 0 0 0 0 0 0 0 0 0 0 0 0 0 0 0 0 0 127 0" result="hardAlpha"/>
<feOffset/>
<feComposite in2="hardAlpha" operator="out"/>
<feColorMatrix type="matrix" values="0 0 0 0 0 0 0 0 0 0 0 0 0 0 0 0 0 0 0.25 0"/>
<feBlend mode="normal" in2="BackgroundImageFix" result="effect1_dropShadow_2_3"/>
<feBlend mode="normal" in="SourceGraphic" in2="effect1_dropShadow_2_3" result="shape"/>
</filter>
<clipPath id="clip0_2_3">
<rect width="1440" height="3894" fill="white"/>
</clipPath>
</defs>
</svg>
